<?xml version="1.0" encoding="UTF-8"?>
<svg width="14px" height="12px" viewBox="0 0 14 12" version="1.1" xmlns="http://www.w3.org/2000/svg" xmlns:xlink="http://www.w3.org/1999/xlink">
    <title>Shape</title>
    <g id="03.-Health-Check-Onbarding-Flow" stroke="none" stroke-width="1" fill="none" fill-rule="evenodd">
        <g id="Health-Checkin-UI--Onboarding-03" transform="translate(-797.000000, -235.000000)" fill="#7EA2FF" fill-rule="nonzero">
            <g id="Team-Image" transform="translate(746.000000, 188.000000)">
                <path d="M56.0555556,47 L55.0833333,49 L52.3611111,49 C51.6070556,49 51,49.6243987 51,50.3999983 L51,57.6000007 C51,58.3756003 51.6070556,59 52.3611111,59 L63.6388889,59 C64.3929444,59 65,58.3756003 65,57.6000007 L65,50.3999983 C65,49.6243987 64.3929444,49 63.6388889,49 L60.9166667,49 L59.9444444,47 L56.0555556,47 Z M58,50.3999983 C59.9260889,50.3999983 61.5,52.0188775 61.5,54.0000025 C61.5,55.9811215 59.9260889,57.6000007 58,57.6000007 C56.07395,57.6000007 54.5,55.9811215 54.5,54.0000025 C54.5,52.0188775 56.07395,50.3999983 58,50.3999983 Z M58,51.5999977 C56.7044944,51.5999977 55.6666667,52.6674232 55.6666667,54.0000025 C55.6666667,55.3325618 56.7044944,56.4000013 58,56.4000013 C59.2955833,56.4000013 60.3333333,55.3325818 60.3333333,54.0000025 C60.3333333,52.6674232 59.2955833,51.5999977 58,51.5999977 Z" id="Shape"></path>
            </g>
        </g>
    </g>
</svg>